<?xml version="1.0" standalone="no"?><!DOCTYPE svg PUBLIC "-//W3C//DTD SVG 1.1//EN" "http://www.w3.org/Graphics/SVG/1.1/DTD/svg11.dtd"><svg t="1740635696565" class="icon" viewBox="0 0 1024 1024" version="1.1" xmlns="http://www.w3.org/2000/svg" p-id="1499" xmlns:xlink="http://www.w3.org/1999/xlink" width="200" height="200"><path d="M78.947097 563.233032l82.580645-37.029161-82.580645 37.029161zM78.947097 563.233032c97.610323 184.286968 293.987097 423.192774 390.358709 451.038968l82.580646-37.029161C455.531355 949.413161 259.138065 710.523871 161.527742 526.203871l-82.580645 37.029161z" fill="#CECEF9" p-id="1500"></path><path d="M469.305806 1014.255484c15.426065 0.165161 33.395613-4.327226 53.115871-12.601807l82.580646-37.012645c-19.720258 8.274581-37.689806 12.766968-53.115871 12.601807l-82.580646 37.029161z" fill="#CECEF9" p-id="1501"></path><path d="M522.421677 1001.653677c103.556129-43.453935 255.256774-191.471484 337.242839-321.767225l82.580645-37.029162C860.259097 773.169548 708.541935 921.187097 604.985806 964.641032l-82.580645 37.012645z" fill="#CECEF9" p-id="1502"></path><path d="M859.664516 679.886452c89.154065-141.708387 93.99329-324.872258-10.801548-462.022194l82.580645-37.029161c104.794839 137.166452 99.955613 320.313806 10.801548 462.022193l-82.580645 37.029162z" fill="#CECEF9" p-id="1503"></path><path d="M848.862968 217.847742C765.192258 108.395355 640.049548 75.131871 539.648 119.989677l82.580645-37.029161c100.418065-44.84129 225.560774-11.577806 309.214968 97.891097l-82.580645 37.029161z" fill="#CECEF9" p-id="1504"></path><path d="M539.648 119.973161a228.864 228.864 0 0 0-54.222452 34.138839l82.580646-37.029161a228.847484 228.847484 0 0 1 54.222451-34.138839l-82.580645 37.029161z" fill="#CECEF9" p-id="1505"></path><path d="M485.425548 154.095484c-5.516387 4.674065-10.900645 9.645419-16.119742 14.914064l82.580646-37.012645c5.219097-5.285161 10.603355-10.24 16.119742-14.914064l-82.580646 37.029161z" fill="#CECEF9" p-id="1506"></path><path d="M469.305806 169.009548a381.935484 381.935484 0 0 0-16.136258-19.720258l82.580646-37.029161c5.516387 6.325677 10.900645 12.882581 16.119741 19.736774l-82.580645 37.012645zM453.169548 149.28929C368.805161 52.967226 250.549677 17.672258 155.648 58.913032l82.580645-37.012645c94.901677-41.240774 213.140645-5.945806 297.488516 90.359742l-82.580645 37.029161z" fill="#CECEF9" p-id="1507"></path><path d="M155.664516 58.913032a210.778839 210.778839 0 0 0-65.899355 45.518452l82.580645-37.029161a210.762323 210.762323 0 0 1 65.899355-45.501936l-82.580645 37.012645z" fill="#CECEF9" p-id="1508"></path><path d="M89.748645 104.431484C-15.029677 210.250323-10.223484 394.867613 78.947097 563.233032l82.580645-37.029161c-89.170581-168.365419-93.99329-352.949677 10.818064-458.801548l-82.580645 37.029161z" fill="#CECEF9" p-id="1509"></path><path d="M78.947097 563.233032c97.610323 184.286968 293.987097 423.192774 390.358709 451.038968 96.355097 0.957935 292.748387-179.266065 390.35871-334.385548 89.154065-141.708387 93.99329-324.872258-10.801548-462.022194-99.592258-130.328774-257.981935-152.658581-363.43742-63.752258-5.516387 4.657548-10.900645 9.628903-16.119742 14.897548a382.067613 382.067613 0 0 0-16.136258-19.720258C347.714065 28.88671 189.324387 3.864774 89.732129 104.431484-15.029677 210.250323-10.223484 394.867613 78.947097 563.233032z" fill="#4E5969" p-id="1510"></path></svg>