<?xml version="1.0" standalone="no"?><!DOCTYPE svg PUBLIC "-//W3C//DTD SVG 1.1//EN" "http://www.w3.org/Graphics/SVG/1.1/DTD/svg11.dtd"><svg t="1740635674041" class="icon" viewBox="0 0 1024 1024" version="1.1" xmlns="http://www.w3.org/2000/svg" p-id="1329" xmlns:xlink="http://www.w3.org/1999/xlink" width="200" height="200"><path d="M421.084554 71.963569l-104.574031 220.711385 78.769231-35.320123 104.574031-220.695631-78.769231 35.304369z" fill="#CECEF9" p-id="1330"></path><path d="M316.494769 292.674954l-233.818584 2.945969 78.76923-35.304369 233.834339-2.961723-78.769231 35.320123zM51.672615 397.469538l169.196308 209.258339 78.769231-35.320123L130.441846 362.180923l-78.769231 35.320123z" fill="#CECEF9" p-id="1331"></path><path d="M220.868923 606.727877L180.901415 860.475077l78.769231-35.304369 39.936-253.778708-78.769231 35.320123zM262.144 938.456615l209.132308-91.388061 78.76923-35.304369-209.148061 91.372307-78.769231 35.320123zM471.276308 847.068554l209.148061 153.883569 78.769231-35.304369-209.148062-153.883569-78.76923 35.304369zM761.635446 947.278769l-39.936-265.720123 78.769231-35.304369 39.936 265.704369-78.769231 35.320123zM721.683692 681.558646l169.196308-158.672738 78.769231-35.30437-169.196308 158.672739-78.769231 35.304369zM859.876431 411.758277l-233.834339-72.830031 78.769231-35.320123 233.834339 72.845785-78.769231 35.304369z" fill="#CECEF9" p-id="1332"></path><path d="M626.057846 338.928246L521.452308 86.961231l78.76923-35.320123 104.574031 251.951261-78.769231 35.320123zM521.468062 86.961231l78.76923-35.288616-78.76923 35.288616z" fill="#CECEF9" p-id="1333"></path><path d="M521.468062 86.961231c-14.777108-35.603692-49.671877-50.176-75.712985-39.368862l78.769231-35.304369c26.041108-10.822892 60.935877 3.749415 75.712984 39.384615l-78.76923 35.288616z" fill="#CECEF9" p-id="1334"></path><path d="M445.755077 47.592369c-10.129723 4.206277-18.920369 12.240738-24.670523 24.3712l78.769231-35.304369c5.750154-12.130462 14.5408-20.164923 24.670523-24.3712l-78.769231 35.288615zM82.676185 295.620923c-5.513846 0.078769-10.618092 1.008246-15.281231 2.646646l78.769231-35.304369c4.663138-1.654154 9.767385-2.583631 15.28123-2.646646l-78.76923 35.304369z" fill="#CECEF9" p-id="1335"></path><path d="M67.3792 298.267569c-34.264615 12.114708-44.961477 63.062646-15.722338 99.217723l78.76923-35.320123c-29.239138-36.139323-18.542277-87.103015 15.722339-99.201969l-78.769231 35.304369zM180.917169 860.490831c-7.845415 49.845169 40.156554 95.909415 81.211077 77.965784l78.769231-35.320123c-41.054523 17.959385-89.056492-28.120615-81.211077-77.95003l-78.769231 35.304369zM680.408615 1000.952123c16.431262 12.0832 33.965292 14.272985 48.600616 9.184492l78.769231-35.304369c-14.635323 5.072738-32.169354 2.898708-48.584862-9.184492l-78.769231 35.304369z" fill="#CECEF9" p-id="1336"></path><path d="M729.009231 1010.136615c21.929354-7.609108 37.336615-31.554954 32.626215-62.857846l78.769231-35.320123c4.7104 31.318646-10.681108 55.248738-32.626215 62.857846l-78.769231 35.320123zM890.88 522.885908c33.240615-31.145354 14.903138-96.823138-31.003569-111.127631l78.769231-35.304369c45.906708 14.288738 64.244185 79.966523 31.019323 111.12763l-78.769231 35.30437z" fill="#CECEF9" p-id="1337"></path><path d="M521.468062 86.961231c-20.527262-49.467077-79.856246-58.320738-100.383508-14.997662l-104.574031 220.711385-233.834338 2.945969c-45.906708 0.582892-64.244185 60.778338-31.019323 101.864369l169.196307 209.242585L180.917169 860.475077c-7.845415 49.845169 40.156554 95.909415 81.211077 77.965785l209.148062-91.388062 209.148061 153.883569c41.054523 30.215877 89.056492-1.496615 81.211077-53.673354l-39.936-265.720123 169.196308-158.672738c33.224862-31.145354 14.887385-96.823138-31.035077-111.127631L626.057846 338.928246 521.468062 86.961231z" fill="#4E5969" p-id="1338"></path></svg>