<?xml version="1.0" standalone="no"?><!DOCTYPE svg PUBLIC "-//W3C//DTD SVG 1.1//EN" "http://www.w3.org/Graphics/SVG/1.1/DTD/svg11.dtd"><svg t="1740635661911" class="icon" viewBox="0 0 1024 1024" version="1.1" xmlns="http://www.w3.org/2000/svg" p-id="1157" xmlns:xlink="http://www.w3.org/1999/xlink" width="200" height="200"><path d="M38.787879 463.080727l77.575757-34.769454-77.575757 34.769454zM425.766788 708.623515l277.628121-268.179394 77.575758-34.769454-277.628122 268.179394-77.575757 34.769454z" fill="#CECEF9" p-id="1158"></path><path d="M703.394909 440.444121l-60.819394-76.908606 77.575758-34.769454 60.819394 76.908606-77.575758 34.769454z" fill="#CECEF9" p-id="1159"></path><path d="M642.59103 363.535515l-216.824242 209.454546 77.575757-34.78497L720.166788 328.766061l-77.575758 34.769454z" fill="#CECEF9" p-id="1160"></path><path d="M425.766788 572.974545l-120.087273-151.877818 77.575758-34.769454 120.087272 151.893333-77.575757 34.753939z" fill="#CECEF9" p-id="1161"></path><path d="M305.679515 421.096727l-60.819394 58.740364 77.575758-34.769455 60.819394-58.740363-77.575758 34.769454z" fill="#CECEF9" p-id="1162"></path><path d="M244.875636 479.837091l180.891152 228.786424 77.575757-34.769454-180.906666-228.80194-77.575758 34.78497zM425.766788 708.623515l77.575757-34.769454-77.575757 34.769454zM38.787879 463.080727C38.787879 282.996364 127.798303 139.372606 259.444364 77.063758l77.575757-34.78497C205.358545 104.587636 116.363636 248.211394 116.363636 428.295758l-77.575757 34.784969z" fill="#CECEF9" p-id="1163"></path><path d="M259.444364 77.063758c61.936485-29.323636 133.321697-40.649697 209.299394-29.292606l77.575757-34.78497c-75.977697-11.341576-147.362909-0.03103-209.299394 29.292606l-77.575757 34.78497zM468.759273 47.771152c237.459394 35.483152 429.971394 278.962424 429.971394 543.80606l77.575757-34.753939c0-264.874667-192.512-508.353939-429.971394-543.837091l-77.575757 34.78497zM898.730667 591.592727c0 180.099879-89.025939 323.708121-220.656485 386.01697l77.575757-34.769455c131.630545-62.308848 220.656485-205.932606 220.656485-386.016969l-77.575757 34.753939z" fill="#CECEF9" p-id="1164"></path><path d="M678.074182 977.609697c-61.936485 29.323636-133.321697 40.649697-209.314909 29.292606l77.575757-34.769455c75.993212 11.357091 147.362909 0.03103 209.314909-29.292606l-77.575757 34.769455zM468.759273 1006.902303C231.284364 971.419152 38.787879 727.939879 38.787879 463.096242l77.575757-34.784969c0 264.843636 192.496485 508.338424 429.971394 543.80606l-77.575757 34.78497z" fill="#CECEF9" p-id="1165"></path><path d="M38.787879 463.080727C38.787879 198.237091 231.284364 12.288 468.759273 47.786667c237.459394 35.483152 429.971394 278.962424 429.971394 543.80606 0 264.874667-192.512 450.808242-429.971394 415.340606C231.284364 971.403636 38.787879 727.939879 38.787879 463.065212z m386.978909 245.542788l277.628121-268.179394-60.819394-76.908606-216.808727 209.454546-120.087273-151.893334-60.819394 58.740364 180.906667 228.786424z" fill="#4E5969" p-id="1166"></path></svg>