<?xml version="1.0" standalone="no"?><!DOCTYPE svg PUBLIC "-//W3C//DTD SVG 1.1//EN" "http://www.w3.org/Graphics/SVG/1.1/DTD/svg11.dtd"><svg t="1740635722710" class="icon" viewBox="0 0 1024 1024" version="1.1" xmlns="http://www.w3.org/2000/svg" p-id="1845" xmlns:xlink="http://www.w3.org/1999/xlink" width="200" height="200"><path d="M31.507692 466.109046l78.769231-35.304369-78.769231 35.304369zM511.747938 391.798154v-97.390277l78.769231-35.320123v97.390277l-78.769231 35.320123zM511.747938 294.407877l-87.323569-13.044185 78.769231-35.320123 87.323569 13.044185-78.769231 35.320123z" fill="#CECEF9" p-id="1846"></path><path d="M424.440123 281.363692v97.374523l78.769231-35.304369v-97.390277l-78.769231 35.320123z" fill="#CECEF9" p-id="1847"></path><path d="M424.440123 378.738215l87.307815 13.059939 78.769231-35.320123-87.323569-13.044185-78.769231 35.304369zM511.747938 391.798154l78.769231-35.320123-78.769231 35.320123zM424.440123 427.433354V768.315077l78.769231-35.304369V392.113231l-78.769231 35.304369z" fill="#CECEF9" p-id="1848"></path><path d="M424.440123 768.315077l87.307815 13.028431 78.769231-35.30437-87.323569-13.044184-78.769231 35.304369z" fill="#CECEF9" p-id="1849"></path><path d="M511.747938 781.343508V440.493292l78.769231-35.320123v340.865969l-78.769231 35.30437z" fill="#CECEF9" p-id="1850"></path><path d="M511.747938 440.477538l-87.323569-13.044184 78.769231-35.304369 87.323569 13.044184-78.769231 35.320123zM424.440123 427.433354l78.769231-35.304369-78.769231 35.304369zM31.507692 466.109046C31.507692 283.254154 121.887508 137.4208 255.558892 74.153354l78.769231-35.320123C200.640985 102.100677 110.276923 247.934031 110.276923 430.788923l-78.769231 35.320123z" fill="#CECEF9" p-id="1851"></path><path d="M255.558892 74.153354c62.889354-29.774769 135.3728-41.275077 212.519385-29.743262l78.769231-35.320123c-77.146585-11.516062-149.630031-0.031508-212.519385 29.743262l-78.769231 35.320123zM468.094031 44.410092c241.112615 36.029046 436.586338 283.254154 436.586338 552.172308l78.769231-35.288615c0-268.949662-195.473723-516.174769-436.586338-552.203816l-78.769231 35.320123zM904.680369 596.598154c0 182.870646-90.395569 328.688246-224.0512 391.955692l78.769231-35.304369c133.655631-63.267446 224.0512-209.1008 224.0512-391.955692l-78.769231 35.288615z" fill="#CECEF9" p-id="1852"></path><path d="M680.629169 988.553846c-62.889354 29.774769-135.3728 41.275077-212.535138 29.743262l78.769231-35.30437c77.162338 11.531815 149.630031 0.031508 212.535138-29.743261l-78.769231 35.304369zM468.094031 1018.297108C226.965662 982.268062 31.507692 735.042954 31.507692 466.1248l78.769231-35.320123c0 268.918154 195.457969 516.159015 436.586339 552.172308l-78.769231 35.320123z" fill="#CECEF9" p-id="1853"></path><path d="M31.507692 466.109046C31.507692 197.190892 226.965662 8.381046 468.094031 44.425846c241.112615 36.029046 436.586338 283.254154 436.586338 552.172308 0 268.949662-195.473723 457.743754-436.586338 421.730461C226.965662 982.252308 31.507692 735.042954 31.507692 466.093292z m480.240246-74.310892v-97.390277l-87.323569-13.044185v97.374523l87.323569 13.059939z m-87.323569 35.6352V768.315077l87.323569 13.044185V440.493292l-87.323569-13.044184z" fill="#4E5969" p-id="1854"></path></svg>